<svg xmlns="http://www.w3.org/2000/svg" width="128" height="128" viewBox="0 0 128 128">
  <!-- Valued Resident - Greater Dust Bunny: what accumulates when nobody sweeps. Original stencil-line signage icon (T11); lint mass, not a mascot. -->
  <rect x="6" y="6" width="116" height="116" rx="14" fill="#F2EDE3" stroke="#20334F" stroke-width="8"/>
  <g fill="none" stroke="#20334F" stroke-width="7" stroke-linecap="round" stroke-linejoin="round">
    <path d="M36 68 Q28 48 48 44 Q52 28 70 31 Q90 28 90 46 Q103 54 95 68 Q102 84 84 87 Q70 97 57 89 Q38 93 36 68 Z" fill="#F2EDE3"/>
    <path d="M50 56 q8 -6 14 2" stroke-width="5"/>
    <path d="M64 72 q8 -4 14 2" stroke-width="5"/>
    <path d="M50 76 q6 4 12 0" stroke-width="5"/>
    <path d="M34 58 q-8 -4 -7 -12" stroke-width="5"/>
    <path d="M94 60 q8 -3 8 -11" stroke-width="5"/>
  </g>
</svg>
